<mxfile host="app.diagrams.net" modified="2023-08-25T16:13:48.771Z" agent="Mozilla/5.0 (Windows NT 10.0; Win64; x64) AppleWebKit/537.36 (KHTML, like Gecko) Chrome/116.0.0.0 Safari/537.36" etag="AI9lHZCPJJ1V1lpI_1tY" version="21.6.9" type="device">
  <diagram name="Page-1" id="e7e014a7-5840-1c2e-5031-d8a46d1fe8dd">
    <mxGraphModel dx="1434" dy="758" grid="1" gridSize="10" guides="1" tooltips="1" connect="1" arrows="1" fold="1" page="1" pageScale="1" pageWidth="1169" pageHeight="826" background="none" math="0" shadow="0">
      <root>
        <mxCell id="0" />
        <mxCell id="1" parent="0" />
        <mxCell id="AZ-Iu0RGPhUAXG2XTJTu-42" value="Покупка газеты в киоске" style="shape=umlFrame;whiteSpace=wrap;html=1;pointerEvents=0;hachureGap=4;fontFamily=Architects Daughter;fontSource=https%3A%2F%2Ffonts.googleapis.com%2Fcss%3Ffamily%3DArchitects%2BDaughter;fontSize=20;width=120;height=80;rounded=1;sketch=1;curveFitting=1;jiggle=2;" vertex="1" parent="1">
          <mxGeometry x="80" y="80" width="510" height="1080" as="geometry" />
        </mxCell>
        <mxCell id="AZ-Iu0RGPhUAXG2XTJTu-49" value="" style="edgeStyle=orthogonalEdgeStyle;rounded=1;hachureGap=4;orthogonalLoop=1;jettySize=auto;html=1;fontFamily=Architects Daughter;fontSource=https%3A%2F%2Ffonts.googleapis.com%2Fcss%3Ffamily%3DArchitects%2BDaughter;fontSize=16;sketch=1;curveFitting=1;jiggle=2;" edge="1" parent="1" source="AZ-Iu0RGPhUAXG2XTJTu-43" target="AZ-Iu0RGPhUAXG2XTJTu-45">
          <mxGeometry relative="1" as="geometry" />
        </mxCell>
        <mxCell id="AZ-Iu0RGPhUAXG2XTJTu-43" value="" style="ellipse;html=1;shape=startState;fillColor=#000000;strokeColor=#ff0000;hachureGap=4;fontFamily=Architects Daughter;fontSource=https%3A%2F%2Ffonts.googleapis.com%2Fcss%3Ffamily%3DArchitects%2BDaughter;fontSize=20;rounded=1;sketch=1;curveFitting=1;jiggle=2;" vertex="1" parent="1">
          <mxGeometry x="312.5" y="100" width="30" height="30" as="geometry" />
        </mxCell>
        <mxCell id="AZ-Iu0RGPhUAXG2XTJTu-45" value="Определить какая нужна газета" style="rounded=1;whiteSpace=wrap;html=1;arcSize=45;fontColor=#000000;fillColor=#ffffc0;strokeColor=#ff0000;hachureGap=4;fontFamily=Architects Daughter;fontSource=https%3A%2F%2Ffonts.googleapis.com%2Fcss%3Ffamily%3DArchitects%2BDaughter;fontSize=14;sketch=1;curveFitting=1;jiggle=2;" vertex="1" parent="1">
          <mxGeometry x="265" y="210" width="125" height="40" as="geometry" />
        </mxCell>
        <mxCell id="AZ-Iu0RGPhUAXG2XTJTu-46" value="" style="edgeStyle=orthogonalEdgeStyle;html=1;verticalAlign=bottom;endArrow=open;endSize=8;strokeColor=#ff0000;rounded=1;hachureGap=4;fontFamily=Architects Daughter;fontSource=https%3A%2F%2Ffonts.googleapis.com%2Fcss%3Ffamily%3DArchitects%2BDaughter;fontSize=16;entryX=0.5;entryY=0;entryDx=0;entryDy=0;sketch=1;curveFitting=1;jiggle=2;" edge="1" source="AZ-Iu0RGPhUAXG2XTJTu-45" parent="1" target="AZ-Iu0RGPhUAXG2XTJTu-48">
          <mxGeometry relative="1" as="geometry">
            <mxPoint x="325" y="310" as="targetPoint" />
          </mxGeometry>
        </mxCell>
        <mxCell id="AZ-Iu0RGPhUAXG2XTJTu-58" value="" style="edgeStyle=orthogonalEdgeStyle;rounded=1;hachureGap=4;orthogonalLoop=1;jettySize=auto;html=1;fontFamily=Architects Daughter;fontSource=https%3A%2F%2Ffonts.googleapis.com%2Fcss%3Ffamily%3DArchitects%2BDaughter;fontSize=16;sketch=1;curveFitting=1;jiggle=2;" edge="1" parent="1" source="AZ-Iu0RGPhUAXG2XTJTu-48" target="AZ-Iu0RGPhUAXG2XTJTu-55">
          <mxGeometry relative="1" as="geometry" />
        </mxCell>
        <mxCell id="AZ-Iu0RGPhUAXG2XTJTu-48" value="Запросить газету&lt;br&gt;у работника" style="rounded=1;whiteSpace=wrap;html=1;arcSize=45;fontColor=#000000;fillColor=#ffffc0;strokeColor=#ff0000;hachureGap=4;fontFamily=Architects Daughter;fontSource=https%3A%2F%2Ffonts.googleapis.com%2Fcss%3Ffamily%3DArchitects%2BDaughter;fontSize=14;sketch=1;curveFitting=1;jiggle=2;" vertex="1" parent="1">
          <mxGeometry x="265" y="320" width="125" height="40" as="geometry" />
        </mxCell>
        <mxCell id="AZ-Iu0RGPhUAXG2XTJTu-61" value="" style="edgeStyle=orthogonalEdgeStyle;rounded=1;hachureGap=4;orthogonalLoop=1;jettySize=auto;html=1;fontFamily=Architects Daughter;fontSource=https%3A%2F%2Ffonts.googleapis.com%2Fcss%3Ffamily%3DArchitects%2BDaughter;fontSize=16;sketch=1;curveFitting=1;jiggle=2;" edge="1" parent="1" source="AZ-Iu0RGPhUAXG2XTJTu-55" target="AZ-Iu0RGPhUAXG2XTJTu-59">
          <mxGeometry relative="1" as="geometry" />
        </mxCell>
        <mxCell id="AZ-Iu0RGPhUAXG2XTJTu-55" value="Газета есть&lt;br style=&quot;font-size: 14px;&quot;&gt;в наличии?" style="rhombus;whiteSpace=wrap;html=1;fontColor=#000000;fillColor=#ffffc0;strokeColor=#ff0000;hachureGap=4;fontFamily=Architects Daughter;fontSource=https%3A%2F%2Ffonts.googleapis.com%2Fcss%3Ffamily%3DArchitects%2BDaughter;fontSize=14;rounded=1;sketch=1;curveFitting=1;jiggle=2;" vertex="1" parent="1">
          <mxGeometry x="265" y="430" width="125" height="70" as="geometry" />
        </mxCell>
        <mxCell id="AZ-Iu0RGPhUAXG2XTJTu-59" value="" style="shape=line;html=1;strokeWidth=6;strokeColor=#ff0000;hachureGap=4;fontFamily=Architects Daughter;fontSource=https%3A%2F%2Ffonts.googleapis.com%2Fcss%3Ffamily%3DArchitects%2BDaughter;fontSize=20;rounded=1;sketch=1;curveFitting=1;jiggle=2;" vertex="1" parent="1">
          <mxGeometry x="150" y="560" width="360" height="10" as="geometry" />
        </mxCell>
        <mxCell id="AZ-Iu0RGPhUAXG2XTJTu-64" value="нет" style="rounded=1;hachureGap=4;orthogonalLoop=1;jettySize=auto;html=1;fontFamily=Architects Daughter;fontSource=https%3A%2F%2Ffonts.googleapis.com%2Fcss%3Ffamily%3DArchitects%2BDaughter;fontSize=16;exitX=0.655;exitY=0.2;exitDx=0;exitDy=0;exitPerimeter=0;sketch=1;curveFitting=1;jiggle=2;entryX=0;entryY=0.5;entryDx=0;entryDy=0;edgeStyle=orthogonalEdgeStyle;" edge="1" parent="1" source="AZ-Iu0RGPhUAXG2XTJTu-59" target="AZ-Iu0RGPhUAXG2XTJTu-66">
          <mxGeometry relative="1" as="geometry">
            <mxPoint x="360" y="640" as="targetPoint" />
            <mxPoint x="360" y="570" as="sourcePoint" />
          </mxGeometry>
        </mxCell>
        <mxCell id="AZ-Iu0RGPhUAXG2XTJTu-65" value="да" style="edgeStyle=orthogonalEdgeStyle;rounded=1;hachureGap=4;orthogonalLoop=1;jettySize=auto;html=1;fontFamily=Architects Daughter;fontSource=https%3A%2F%2Ffonts.googleapis.com%2Fcss%3Ffamily%3DArchitects%2BDaughter;fontSize=16;exitX=0.655;exitY=0.2;exitDx=0;exitDy=0;exitPerimeter=0;entryX=0.5;entryY=0;entryDx=0;entryDy=0;sketch=1;curveFitting=1;jiggle=2;" edge="1" parent="1" target="AZ-Iu0RGPhUAXG2XTJTu-68">
          <mxGeometry relative="1" as="geometry">
            <mxPoint x="281" y="640" as="targetPoint" />
            <mxPoint x="280" y="570" as="sourcePoint" />
            <Array as="points" />
          </mxGeometry>
        </mxCell>
        <mxCell id="AZ-Iu0RGPhUAXG2XTJTu-66" value="&lt;font style=&quot;font-size: 14px;&quot;&gt;&lt;b&gt;Ушел без газеты&lt;/b&gt;&lt;/font&gt;" style="ellipse;html=1;shape=endState;fillColor=#000000;strokeColor=#ff0000;hachureGap=4;fontFamily=Architects Daughter;fontSource=https%3A%2F%2Ffonts.googleapis.com%2Fcss%3Ffamily%3DArchitects%2BDaughter;fontSize=20;align=left;labelPosition=right;verticalLabelPosition=middle;verticalAlign=middle;rounded=1;sketch=1;curveFitting=1;jiggle=2;" vertex="1" parent="1">
          <mxGeometry x="430" y="720" width="30" height="30" as="geometry" />
        </mxCell>
        <mxCell id="AZ-Iu0RGPhUAXG2XTJTu-68" value="&lt;font style=&quot;font-size: 14px;&quot;&gt;Передать деньги&lt;/font&gt;" style="rounded=1;whiteSpace=wrap;html=1;arcSize=40;fontColor=#000000;fillColor=#ffffc0;strokeColor=#ff0000;hachureGap=4;fontFamily=Architects Daughter;fontSource=https%3A%2F%2Ffonts.googleapis.com%2Fcss%3Ffamily%3DArchitects%2BDaughter;fontSize=20;sketch=1;curveFitting=1;jiggle=2;" vertex="1" parent="1">
          <mxGeometry x="223" y="830" width="120" height="40" as="geometry" />
        </mxCell>
        <mxCell id="AZ-Iu0RGPhUAXG2XTJTu-69" value="" style="edgeStyle=orthogonalEdgeStyle;html=1;verticalAlign=bottom;endArrow=open;endSize=8;strokeColor=#ff0000;rounded=1;hachureGap=4;fontFamily=Architects Daughter;fontSource=https%3A%2F%2Ffonts.googleapis.com%2Fcss%3Ffamily%3DArchitects%2BDaughter;fontSize=16;entryX=0.5;entryY=0;entryDx=0;entryDy=0;sketch=1;curveFitting=1;jiggle=2;" edge="1" source="AZ-Iu0RGPhUAXG2XTJTu-68" parent="1" target="AZ-Iu0RGPhUAXG2XTJTu-70">
          <mxGeometry relative="1" as="geometry">
            <mxPoint x="283" y="930" as="targetPoint" />
          </mxGeometry>
        </mxCell>
        <mxCell id="AZ-Iu0RGPhUAXG2XTJTu-73" value="" style="edgeStyle=orthogonalEdgeStyle;rounded=1;hachureGap=4;orthogonalLoop=1;jettySize=auto;html=1;fontFamily=Architects Daughter;fontSource=https%3A%2F%2Ffonts.googleapis.com%2Fcss%3Ffamily%3DArchitects%2BDaughter;fontSize=16;sketch=1;curveFitting=1;jiggle=2;" edge="1" parent="1" source="AZ-Iu0RGPhUAXG2XTJTu-70" target="AZ-Iu0RGPhUAXG2XTJTu-72">
          <mxGeometry relative="1" as="geometry" />
        </mxCell>
        <mxCell id="AZ-Iu0RGPhUAXG2XTJTu-70" value="&lt;font style=&quot;font-size: 14px;&quot;&gt;Забрать газету&lt;/font&gt;" style="rounded=1;whiteSpace=wrap;html=1;arcSize=40;fontColor=#000000;fillColor=#ffffc0;strokeColor=#ff0000;hachureGap=4;fontFamily=Architects Daughter;fontSource=https%3A%2F%2Ffonts.googleapis.com%2Fcss%3Ffamily%3DArchitects%2BDaughter;fontSize=20;sketch=1;curveFitting=1;jiggle=2;" vertex="1" parent="1">
          <mxGeometry x="222.5" y="940" width="120" height="40" as="geometry" />
        </mxCell>
        <mxCell id="AZ-Iu0RGPhUAXG2XTJTu-72" value="&lt;font style=&quot;font-size: 14px;&quot;&gt;&lt;b&gt;Ушел с газетой&lt;/b&gt;&lt;/font&gt;" style="ellipse;html=1;shape=endState;fillColor=#000000;strokeColor=#ff0000;hachureGap=4;fontFamily=Architects Daughter;fontSource=https%3A%2F%2Ffonts.googleapis.com%2Fcss%3Ffamily%3DArchitects%2BDaughter;fontSize=20;labelPosition=center;verticalLabelPosition=bottom;align=center;verticalAlign=top;rounded=1;sketch=1;curveFitting=1;jiggle=2;" vertex="1" parent="1">
          <mxGeometry x="268" y="1070" width="30" height="30" as="geometry" />
        </mxCell>
        <mxCell id="AZ-Iu0RGPhUAXG2XTJTu-76" value="нет, но выбрал другую" style="rounded=1;hachureGap=4;orthogonalLoop=1;jettySize=auto;html=1;fontFamily=Architects Daughter;fontSource=https%3A%2F%2Ffonts.googleapis.com%2Fcss%3Ffamily%3DArchitects%2BDaughter;fontSize=16;exitX=0.481;exitY=0.6;exitDx=0;exitDy=0;exitPerimeter=0;entryX=0.808;entryY=0;entryDx=0;entryDy=0;entryPerimeter=0;horizontal=0;sketch=1;curveFitting=1;jiggle=2;" edge="1" parent="1" source="AZ-Iu0RGPhUAXG2XTJTu-59" target="AZ-Iu0RGPhUAXG2XTJTu-68">
          <mxGeometry relative="1" as="geometry">
            <mxPoint x="324.5" y="730" as="targetPoint" />
            <mxPoint x="321.5" y="600" as="sourcePoint" />
          </mxGeometry>
        </mxCell>
        <mxCell id="AZ-Iu0RGPhUAXG2XTJTu-81" value="Activity dia" style="html=1;whiteSpace=wrap;rounded=1;sketch=1;hachureGap=4;jiggle=2;curveFitting=1;fontFamily=Architects Daughter;fontSource=https%3A%2F%2Ffonts.googleapis.com%2Fcss%3Ffamily%3DArchitects%2BDaughter;fontSize=20;" vertex="1" parent="1">
          <mxGeometry x="268" y="10" width="110" height="50" as="geometry" />
        </mxCell>
      </root>
    </mxGraphModel>
  </diagram>
</mxfile>
